<svg xmlns="http://www.w3.org/2000/svg" fill="none" viewBox="0 0 25.38 36.75675675675676" style="max-height: 500px" width="25.38" height="36.75675675675676">
<path fill="#1C1917" d="M36.292 20.3003L35.908 16.1723L43.78 7.74834H48.028L36.292 20.3003ZM34.324 24.5483V7.74834H37.564V24.5483H34.324ZM44.236 24.5483L37.54 16.0043L39.916 14.0363L48.292 24.5483H44.236ZM49.0844 24.5483V12.5483H52.2524V24.5483H49.0844ZM50.6684 10.6043C50.1884 10.6043 49.7644 10.4283 49.3964 10.0763C49.0284 9.70834 48.8444 9.27634 48.8444 8.78034C48.8444 8.28434 49.0284 7.86034 49.3964 7.50834C49.7644 7.14034 50.1884 6.95634 50.6684 6.95634C51.1644 6.95634 51.5884 7.14034 51.9404 7.50834C52.3084 7.86034 52.4924 8.28434 52.4924 8.78034C52.4924 9.27634 52.3084 9.70834 51.9404 10.0763C51.5884 10.4283 51.1644 10.6043 50.6684 10.6043ZM59.9976 24.8363C58.7496 24.8363 57.6376 24.5723 56.6616 24.0443C55.6856 23.5003 54.9256 22.7563 54.3816 21.8123C53.8376 20.8523 53.5656 19.7643 53.5656 18.5483C53.5656 17.3163 53.8376 16.2283 54.3816 15.2843C54.9256 14.3403 55.6776 13.6043 56.6376 13.0763C57.5976 12.5323 58.7016 12.2603 59.9496 12.2603C61.1496 12.2603 62.2456 12.5563 63.2376 13.1483C64.2296 13.7403 64.9496 14.5963 65.3976 15.7163L62.4216 16.7723C62.1976 16.3083 61.8456 15.9403 61.3656 15.6683C60.9016 15.3803 60.3816 15.2363 59.8056 15.2363C59.2136 15.2363 58.6936 15.3803 58.2456 15.6683C57.7976 15.9403 57.4456 16.3243 57.1896 16.8203C56.9336 17.3163 56.8056 17.8923 56.8056 18.5483C56.8056 19.2043 56.9336 19.7803 57.1896 20.2763C57.4456 20.7563 57.8056 21.1403 58.2696 21.4283C58.7336 21.7163 59.2616 21.8603 59.8536 21.8603C60.4296 21.8603 60.9496 21.7083 61.4136 21.4043C61.8936 21.1003 62.2456 20.7003 62.4696 20.2043L65.4696 21.2603C65.0056 22.3963 64.2776 23.2763 63.2856 23.9003C62.3096 24.5243 61.2136 24.8363 59.9976 24.8363ZM69.3792 21.5003L67.4832 19.3163L73.6272 12.5483H77.3952L69.3792 21.5003ZM66.3552 24.5483V7.74834H69.5232V24.5483H66.3552ZM74.0352 24.5483L70.0512 18.7403L72.1152 16.5563L77.7552 24.5483H74.0352ZM83.3164 24.8363C82.1004 24.8363 81.0124 24.5723 80.0524 24.0443C79.1084 23.5003 78.3644 22.7563 77.8204 21.8123C77.2924 20.8683 77.0284 19.7803 77.0284 18.5483C77.0284 17.3163 77.2924 16.2283 77.8204 15.2843C78.3484 14.3403 79.0844 13.6043 80.0284 13.0763C80.9724 12.5323 82.0524 12.2603 83.2684 12.2603C84.5004 12.2603 85.5884 12.5323 86.5324 13.0763C87.4764 13.6043 88.2124 14.3403 88.7404 15.2843C89.2684 16.2283 89.5324 17.3163 89.5324 18.5483C89.5324 19.7803 89.2684 20.8683 88.7404 21.8123C88.2124 22.7563 87.4764 23.5003 86.5324 24.0443C85.6044 24.5723 84.5324 24.8363 83.3164 24.8363ZM83.3164 21.9083C83.9084 21.9083 84.4284 21.7643 84.8764 21.4763C85.3244 21.1883 85.6684 20.7963 85.9084 20.3003C86.1644 19.7883 86.2924 19.2043 86.2924 18.5483C86.2924 17.8923 86.1644 17.3163 85.9084 16.8203C85.6524 16.3083 85.2924 15.9083 84.8284 15.6203C84.3804 15.3323 83.8604 15.1883 83.2684 15.1883C82.6924 15.1883 82.1724 15.3323 81.7084 15.6203C81.2604 15.9083 80.9084 16.3083 80.6524 16.8203C80.3964 17.3163 80.2684 17.8923 80.2684 18.5483C80.2684 19.2043 80.3964 19.7883 80.6524 20.3003C80.9084 20.7963 81.2684 21.1883 81.7324 21.4763C82.1964 21.7643 82.7244 21.9083 83.3164 21.9083ZM91.8618 24.5483V11.3483C91.8618 10.0683 92.1898 9.07634 92.8458 8.37234C93.5018 7.65234 94.5018 7.29234 95.8458 7.29234C96.3098 7.29234 96.7978 7.37234 97.3098 7.53234C97.8378 7.69234 98.3178 7.88434 98.7498 8.10834L97.5738 10.3883C97.3178 10.2603 97.0858 10.1643 96.8778 10.1003C96.6698 10.0363 96.4778 10.0043 96.3018 10.0043C95.8698 10.0043 95.5498 10.1563 95.3418 10.4603C95.1338 10.7483 95.0298 11.2203 95.0298 11.8763V24.5483H91.8618ZM89.8698 15.0923V12.5483H97.9818V15.0923H89.8698ZM100.324 24.5483V11.3483C100.324 10.0683 100.652 9.07634 101.308 8.37234C101.964 7.65234 102.964 7.29234 104.308 7.29234C104.772 7.29234 105.26 7.37234 105.772 7.53234C106.3 7.69234 106.78 7.88434 107.212 8.10834L106.036 10.3883C105.78 10.2603 105.548 10.1643 105.34 10.1003C105.132 10.0363 104.94 10.0043 104.764 10.0043C104.332 10.0043 104.012 10.1563 103.804 10.4603C103.596 10.7483 103.492 11.2203 103.492 11.8763V24.5483H100.324ZM98.3316 15.0923V12.5483H106.444V15.0923H98.3316Z"/>
<path fill="url(#paint0_linear_195_22570)" d="M24.6784 19.4058L23.1334 26.3596C23.0601 26.6898 22.9042 26.996 22.6804 27.2496C22.4566 27.5033 22.1721 27.6959 21.8535 27.8097C21.535 27.9235 21.1928 27.9546 20.8589 27.9001C20.5251 27.8457 20.2105 27.7074 19.9446 27.4983L16.5396 24.9271H8.91463L5.50713 27.4983C5.24124 27.7074 4.92666 27.8457 4.59282 27.9001C4.25898 27.9546 3.91678 27.9235 3.59823 27.8097C3.27968 27.6959 2.99519 27.5033 2.77136 27.2496C2.54753 26.996 2.39168 26.6898 2.31838 26.3596L0.773377 19.4058C0.707842 19.1074 0.711153 18.798 0.78306 18.5011C0.854967 18.2041 0.993581 17.9275 1.18838 17.6921L4.75838 13.4096C4.8782 11.8358 5.23951 10.2898 5.82963 8.82585C7.44213 4.78335 10.3296 2.2471 11.5009 1.3446C11.8515 1.07295 12.2824 0.925537 12.7259 0.925537C13.1694 0.925537 13.6003 1.07295 13.9509 1.3446C15.1184 2.2471 18.0096 4.78335 19.6221 8.82585C20.2122 10.2898 20.5736 11.8358 20.6934 13.4096L24.2634 17.6921C24.4582 17.9275 24.5968 18.2041 24.6687 18.5011C24.7406 18.798 24.7439 19.1074 24.6784 19.4058ZM7.27463 23.6558C5.93213 21.2117 5.11713 18.8088 4.82963 16.4471L2.72588 18.9721L4.27088 25.9271L4.29338 25.9108L7.27463 23.6558ZM22.7259 18.9721L20.6221 16.4471C20.3371 18.8038 19.5221 21.2075 18.1771 23.6583L21.1584 25.9083L21.1809 25.9246L22.7259 18.9721ZM16.2419 13.9705L12.6266 18.8606C12.5882 18.9123 12.5342 18.9501 12.4725 18.9683C12.4108 18.9865 12.3449 18.9841 12.2846 18.9615C12.2244 18.939 12.1732 18.8975 12.1386 18.8432C12.1041 18.789 12.0881 18.725 12.0931 18.6608L12.3228 15.8998L10.1101 15.3468C10.0626 15.335 10.0188 15.3116 9.98252 15.2787C9.94626 15.2458 9.91871 15.2045 9.90233 15.1583C9.88595 15.1122 9.88126 15.0627 9.88867 15.0143C9.89608 14.9659 9.91536 14.9201 9.94479 14.881L13.5601 9.99082C13.5984 9.93918 13.6525 9.90141 13.7142 9.88321C13.7759 9.86501 13.8418 9.86737 13.9021 9.88992C13.9623 9.91248 14.0135 9.95401 14.0481 10.0083C14.0826 10.0625 14.0986 10.1265 14.0936 10.1906L13.8627 12.9548L16.0753 13.5066C16.1225 13.5186 16.166 13.542 16.202 13.5748C16.238 13.6076 16.2654 13.6487 16.2817 13.6946C16.298 13.7404 16.3028 13.7896 16.2956 13.8377C16.2884 13.8859 16.2694 13.9315 16.2404 13.9706L16.2419 13.9705ZM11.6162 30.9488C11.1855 31.1203 10.8088 31.417 10.5227 31.8098C10.4983 31.846 10.4656 31.8742 10.4279 31.8915C10.3901 31.9089 10.3484 31.915 10.3068 31.9091C10.2557 31.9027 10.2067 31.879 10.1663 31.8411C10.1259 31.8032 10.0962 31.753 10.0811 31.6973C9.74214 30.4377 9.29292 27.6868 12.1709 27.5483C12.1873 27.5494 12.2036 27.5544 12.2186 27.5628C12.2336 27.5713 12.247 27.5831 12.258 27.5975C12.2689 27.6119 12.2772 27.6286 12.2823 27.6464C12.2873 27.6642 12.289 27.6828 12.2873 27.7009C12.2195 28.1361 12.2452 28.5893 12.3623 29.024C12.4793 29.4587 12.6844 29.8627 12.9611 30.2032C12.9936 30.2431 13.0377 30.2686 13.0845 30.2745C13.1312 30.2805 13.1771 30.2665 13.213 30.2354C13.5187 29.9726 13.7605 29.629 13.9192 29.2325C14.0778 28.8359 14.1488 28.3973 14.1264 27.952C14.1256 27.9326 14.1286 27.9135 14.1352 27.8961C14.1419 27.8787 14.152 27.8634 14.1649 27.8513C14.1777 27.8393 14.193 27.8307 14.2096 27.8263C14.2261 27.8219 14.2436 27.8218 14.2607 27.8259C14.7608 27.9387 16.2705 28.4232 16.3502 30.1844C16.3766 30.9423 16.1361 31.663 15.6806 32.1908C15.0355 32.9513 13.9259 34.4647 13.9411 35.6974C13.9426 35.748 13.9317 35.7972 13.9098 35.8399C13.8879 35.8825 13.8556 35.9169 13.8165 35.9394C13.7774 35.962 13.733 35.9718 13.6878 35.9679C13.6427 35.964 13.5986 35.9464 13.5603 35.9171C12.7851 35.3287 11.1821 33.8915 11.6162 30.9488Z" clip-rule="evenodd" fill-rule="evenodd"/>
<defs>
<linearGradient gradientUnits="userSpaceOnUse" y2="29.9255" x2="10.7266" y1="5.92554" x1="18.2266" id="paint0_linear_195_22570">
<stop stop-color="#F97316"/>
<stop stop-color="#EF4444" offset="0.465"/>
<stop stop-color="#F97316" offset="1"/>
</linearGradient>
</defs>
</svg>